# xmcd
#
# Track frame offsets: 
#        150
#        14007
#        27722
#        41542
#        57012
#        73890
#        90705
#        104330
#        121695
#        137430
#        151402
#        167905
#        182025
#        196155
#        212992
#        227247
#        243650
#        257670
#        274847
#        289927
#
# Disc length: 4053 seconds
#
# Revision: 1
# Processed by: cddbd v1.5.2PL0 Copyright (c) Steve Scherf et al.
# Submitted via: ExactAudioCopy v0.99pb5
#
DISCID=2b0fd314
DTITLE=Various Artist - Sommer Sonne Holiday 1998
DYEAR=1998
DGENRE=Schlager
TTITLE0=Rosenstolz - Herzensschöner
TTITLE1=Wind - Sonne, Mond und leuchtende Sterne
TTITLE2=Oliver Haidt - Ich denk an Rhodos
TTITLE3=Brunner and Brunner - In dir nur liebe spür´n
TTITLE4=Petra Frey - Küss mich, Lieb mich, halt mich fest
TTITLE5=André Stade - Weil ich wahnsinnig bin
TTITLE6=Gaby Baginsky - Männer (versteh´n nur was sie woll´n)
TTITLE7=Matthias Reim - Lass uns 1x oder 2x
TTITLE8=Simone - Nimm mich einfach in den Arm
TTITLE9=Egon Egemann - Gegen den Strom
TTITLE10=Die Paldauer - Wenn du willst
TTITLE11=Rosanna Rocci - Alles okay
TTITLE12=Die Flippers - Lady Bonita
TTITLE13=Uta Bresan - Feuer im Vulkan
TTITLE14=Frans Bauer - Te Quiero
TTITLE15=Carriere - Mein Leben lang nur von Dir geträumt
TTITLE16=Dennie Christian - vorbei ist vorbei
TTITLE17=Peggy March - Mach mich nicht schwach
TTITLE18=Andy Borg - Komm zurück in meine Arme
TTITLE19=Jürgen Marcus - Mach`s gut bis zum nächsten Leben
EXTD=Pepi
EXTT0=
EXTT1=
EXTT2=
EXTT3=
EXTT4=
EXTT5=
EXTT6=
EXTT7=
EXTT8=
EXTT9=
EXTT10=
EXTT11=
EXTT12=
EXTT13=
EXTT14=
EXTT15=
EXTT16=
EXTT17=
EXTT18=
EXTT19=
PLAYORDER=
